<svg xmlns="http://www.w3.org/2000/svg" width="32" height="34" viewBox="0 0 32 34"><path fill="#FFF" fill-rule="evenodd" d="M28.9071,16.5648 L30.3109,16.5648 C31.2429,16.5648 31.9989,17.3197 32,18.2504 L32,24.6904 C32,25.6211 31.244,26.376 30.312,26.376 L28.9083,26.376 L28.9083,29.731 C28.9083,31.5878 27.401,33.0918 25.5427,33.0918 L6.45728,33.0918 C4.59789,33.0918 3.09174,31.5866 3.09174,29.731 L3.09174,26.376 L1.68797,26.376 C0.755958,26.376 0,25.6211 0,24.6904 L0,18.2504 C0,17.3197 0.755958,16.5648 1.68797,16.5648 L3.09174,16.5648 L3.09174,13.365 C3.09174,11.5081 4.59903,10.0042 6.45728,10.0042 L14.468,10.0042 L14.468,6.30441 C13.3921,5.74948 12.6557,4.63152 12.6557,3.33894 C12.6557,1.4948 14.1527,0 15.9994,0 C17.8462,0 19.3431,1.4948 19.3431,3.33894 C19.3431,4.63038 18.6068,5.74948 17.5309,6.30441 L17.5309,10.0042 L25.5416,10.0042 C27.401,10.0042 28.9071,11.5093 28.9071,13.365 L28.9071,16.5648 Z M13.4393,17.4806 C13.4393,18.5333 12.5847,19.3867 11.5304,19.3867 C10.4762,19.3867 9.6215,18.5333 9.6215,17.4806 C9.6215,16.4278 10.4762,15.5744 11.5304,15.5744 C12.5847,15.5744 13.4393,16.4278 13.4393,17.4806 Z M22.5626,17.4806 C22.5626,18.5333 21.708,19.3867 20.6537,19.3867 C19.5995,19.3867 18.7448,18.5333 18.7448,17.4806 C18.7448,16.4278 19.5995,15.5744 20.6537,15.5744 C21.708,15.5744 22.5626,16.4278 22.5626,17.4806 Z M16.0834,27.7008 C12.7846,27.7008 9.68136,26.4208 7.34558,24.0964 C6.85081,23.6047 6.84967,22.8049 7.34215,22.312 C7.83458,21.818 8.63545,21.8168 9.12907,22.3086 C10.9885,24.1584 13.4589,25.1765 16.0834,25.1765 C18.716,25.1765 21.1899,24.1527 23.0516,22.2937 C23.5452,21.8007 24.3449,21.8007 24.8385,22.2937 C25.3321,22.7866 25.3321,23.5851 24.8385,24.078 C22.5005,26.4151 19.3915,27.7008 16.0834,27.7008 Z"/></svg>